<svg width="12" height="14" viewBox="0 0 12 14" fill="none"
    xmlns="http://www.w3.org/2000/svg">
    <path d="M10 9.66666C9.47467 9.66666 9 9.87333 8.644 10.2047L3.94 7.46666C3.97333 7.31333 4 7.15999 4 6.99999C4 6.83999 3.97333 6.68666 3.94 6.53333L8.64 3.79333C9 4.12666 9.47333 4.33333 10 4.33333C11.1067 4.33333 12 3.43999 12 2.33333C12 1.22666 11.1067 0.333328 10 0.333328C8.89333 0.333328 8 1.22666 8 2.33333C8 2.49333 8.02667 2.64666 8.06 2.79999L3.36 5.53999C3 5.20666 2.52667 4.99999 2 4.99999C0.893333 4.99999 0 5.89333 0 6.99999C0 8.10666 0.893333 8.99999 2 8.99999C2.52667 8.99999 3 8.79333 3.36 8.45999L8.05867 11.2053C8.02112 11.3563 8.00143 11.5111 8 11.6667C8 12.0622 8.1173 12.4489 8.33706 12.7778C8.55682 13.1067 8.86918 13.363 9.23463 13.5144C9.60009 13.6658 10.0022 13.7054 10.3902 13.6282C10.7781 13.5511 11.1345 13.3606 11.4142 13.0809C11.6939 12.8012 11.8844 12.4448 11.9616 12.0568C12.0387 11.6689 11.9991 11.2667 11.8478 10.9013C11.6964 10.5358 11.44 10.2235 11.1111 10.0037C10.7822 9.78396 10.3956 9.66666 10 9.66666Z" fill="white"/>
</svg>
