<svg width="24" height="24" viewBox="0 0 24 24" fill="none" xmlns="http://www.w3.org/2000/svg">
<path d="M22.6087 18.425L17.5275 13.805C17.2873 13.5867 16.9717 13.4703 16.6472 13.4803C16.3228 13.4903 16.015 13.626 15.7887 13.8587L12.7975 16.935C12.0775 16.7975 10.63 16.3462 9.13999 14.86C7.64999 13.3687 7.19874 11.9175 7.06499 11.2025L10.1387 8.20999C10.3718 7.9839 10.5077 7.67602 10.5177 7.3515C10.5277 7.02698 10.4111 6.71129 10.1925 6.47124L5.57374 1.39124C5.35504 1.15044 5.05108 1.00437 4.72643 0.984068C4.40177 0.963762 4.08198 1.07082 3.83499 1.28249L1.12249 3.60874C0.906375 3.82564 0.777386 4.11431 0.759986 4.41999C0.741236 4.73249 0.383736 12.135 6.12374 17.8775C11.1312 22.8837 17.4037 23.25 19.1312 23.25C19.3837 23.25 19.5387 23.2425 19.58 23.24C19.8856 23.2229 20.1741 23.0933 20.39 22.8762L22.715 20.1625C22.9275 19.9163 23.0353 19.5968 23.0155 19.2721C22.9956 18.9475 22.8497 18.6435 22.6087 18.425Z" fill="black"/>
</svg>
